<svg width="39" height="40" viewBox="0 0 39 40" fill="none" xmlns="http://www.w3.org/2000/svg">
<path d="M20.0292 14.6454C18.9245 14.5363 17.813 14.7713 16.847 15.3183C15.8811 15.8653 15.1078 16.6974 14.633 17.7009C14.1582 18.7043 14.0052 19.83 14.1949 20.9237C14.3847 22.0175 14.9078 23.0259 15.6928 23.8108C16.4777 24.5958 17.4861 25.1189 18.5798 25.3086C19.6736 25.4983 20.7993 25.3453 21.8027 24.8706C22.8061 24.3958 23.6383 23.6225 24.1853 22.6565C24.7322 21.6906 24.9673 20.5791 24.8582 19.4744C24.7338 18.236 24.1851 17.0787 23.305 16.1986C22.4249 15.3185 21.2676 14.7698 20.0292 14.6454ZM32.9934 20.0036C32.99 20.5888 32.947 21.1732 32.8647 21.7526L36.6682 24.7358C36.8338 24.8731 36.9454 25.0647 36.9831 25.2765C37.0209 25.4882 36.9823 25.7066 36.8743 25.8926L33.2761 32.1181C33.1668 32.3024 32.996 32.4421 32.7938 32.5128C32.5916 32.5834 32.3709 32.5804 32.1706 32.5043L28.3933 30.9832C28.185 30.9003 27.9593 30.8703 27.7366 30.896C27.5139 30.9217 27.301 31.0023 27.117 31.1305C26.5405 31.5274 25.9348 31.8801 25.3049 32.1854C25.1069 32.2817 24.9356 32.4252 24.8062 32.6033C24.6768 32.7814 24.5932 32.9887 24.5629 33.2068L23.9967 37.2357C23.9595 37.4485 23.8496 37.6417 23.6857 37.7824C23.5218 37.9232 23.3141 38.0026 23.0982 38.0072H15.9018C15.6894 38.0035 15.4846 37.9276 15.3211 37.7919C15.1577 37.6563 15.0453 37.469 15.0025 37.2609L14.4371 33.2379C14.4054 33.0174 14.3196 32.8082 14.1876 32.6288C14.0555 32.4495 13.8811 32.3056 13.68 32.2098C13.0509 31.9062 12.4471 31.5525 11.8746 31.1523C11.6912 31.0248 11.4791 30.9448 11.2571 30.9197C11.0352 30.8946 10.8106 30.9251 10.6034 31.0085L6.82683 32.5287C6.62669 32.6049 6.40608 32.608 6.20386 32.5375C6.00164 32.4671 5.83078 32.3275 5.72137 32.1434L2.12318 25.9178C2.015 25.7318 1.97635 25.5135 2.01409 25.3016C2.05184 25.0898 2.16353 24.8983 2.3293 24.7611L5.54386 22.2372C5.71997 22.0974 5.85839 21.9158 5.94654 21.709C6.03468 21.5021 6.06978 21.2765 6.04864 21.0527C6.01835 20.7018 5.99984 20.3519 5.99984 20.0011C5.99984 19.6502 6.01751 19.3053 6.04864 18.9621C6.06747 18.7396 6.03065 18.5159 5.94151 18.3112C5.85236 18.1064 5.71369 17.9271 5.53797 17.7893L2.32509 15.2654C2.16202 15.1275 2.05267 14.9367 2.01622 14.7262C1.97976 14.5158 2.01852 14.2993 2.12571 14.1146L5.7239 7.88902C5.83317 7.70477 6.00398 7.565 6.20621 7.49436C6.40844 7.42372 6.62912 7.42673 6.82935 7.50287L10.6067 9.02392C10.815 9.10686 11.0407 9.13682 11.2634 9.11113C11.4861 9.08543 11.699 9.00488 11.883 8.87669C12.4595 8.47971 13.0653 8.12704 13.6951 7.82172C13.8931 7.72547 14.0644 7.58195 14.1938 7.40383C14.3232 7.22571 14.4068 7.01846 14.4371 6.80039L15.0033 2.77146C15.0405 2.55868 15.1504 2.36543 15.3143 2.22471C15.4782 2.084 15.6859 2.00457 15.9018 2H23.0982C23.3106 2.00367 23.5154 2.07959 23.6789 2.21523C23.8423 2.35087 23.9547 2.53816 23.9975 2.74622L24.5629 6.76927C24.5946 6.98974 24.6804 7.19895 24.8124 7.37831C24.9445 7.55766 25.1189 7.7016 25.32 7.79732C25.9491 8.10099 26.5529 8.45462 27.1254 8.85482C27.3088 8.98237 27.5209 9.0623 27.7429 9.08742C27.9648 9.11253 28.1894 9.08204 28.3966 8.99868L32.1732 7.47847C32.3733 7.40226 32.5939 7.39912 32.7961 7.46961C32.9984 7.54009 33.1692 7.67968 33.2786 7.86378L36.8768 14.0893C36.985 14.2753 37.0237 14.4937 36.9859 14.7055C36.9482 14.9173 36.8365 15.1089 36.6707 15.2461L33.4561 17.77C33.2793 17.9093 33.14 18.0907 33.0511 18.2976C32.9622 18.5044 32.9265 18.7303 32.9472 18.9545C32.9749 19.3028 32.9934 19.6528 32.9934 20.0036Z" stroke="#F4F5F8" stroke-width="4" stroke-linecap="round" stroke-linejoin="round"/>
</svg>
