<?xml version="1.0" standalone="no"?>
<!DOCTYPE svg PUBLIC "-//W3C//DTD SVG 20010904//EN"
 "http://www.w3.org/TR/2001/REC-SVG-20010904/DTD/svg10.dtd">
<svg version="1.0" xmlns="http://www.w3.org/2000/svg"
 width="512.000000pt" height="512.000000pt" viewBox="0 0 512.000000 512.000000"
 preserveAspectRatio="xMidYMid meet">

<g transform="translate(0.000000,512.000000) scale(0.100000,-0.100000)"
fill="#000000" stroke="none">
<path d="M1636 4896 c-92 -34 -146 -126 -146 -248 l0 -58 -222 0 c-318 0 -417
-20 -553 -112 -96 -64 -167 -143 -216 -243 -74 -152 -70 -26 -67 -1751 l3
-1549 22 -65 c67 -194 227 -352 418 -413 70 -22 72 -22 862 -22 l791 0 44 30
c123 87 123 263 0 350 l-44 30 -756 5 c-715 5 -759 6 -795 24 -56 28 -104 89
-117 150 -8 35 -10 341 -8 1006 l3 955 1705 0 1705 0 5 -195 c5 -208 10 -230
62 -276 98 -89 247 -73 323 34 l30 44 3 720 c3 805 5 776 -68 923 -89 181
-255 304 -460 341 -48 8 -157 13 -302 14 l-228 0 0 58 c0 91 -23 153 -74 200
-77 71 -170 79 -260 21 -65 -41 -96 -107 -96 -206 l0 -73 -640 0 -640 0 0 73
c0 74 -22 140 -58 180 -48 53 -157 78 -226 53z m-146 -794 c0 -143 69 -239
187 -258 87 -14 174 33 216 115 22 45 27 68 27 128 l0 73 640 0 640 0 0 -69
c0 -111 36 -183 110 -221 89 -45 174 -34 246 32 51 47 74 109 74 200 l0 58
234 0 234 0 53 -28 c39 -20 62 -41 84 -77 l30 -48 0 -296 0 -296 -1705 0
-1705 0 0 296 0 296 30 48 c22 36 45 57 84 77 l53 28 234 0 234 0 0 -58z"/>
<path d="M3395 2559 c-136 -18 -310 -84 -425 -162 -66 -45 -186 -163 -235
-232 -208 -293 -238 -669 -78 -992 232 -469 808 -665 1278 -434 l95 47 207
-209 c216 -216 271 -257 341 -257 123 0 222 99 222 222 0 70 -41 125 -257 341
l-209 207 47 95 c302 615 -128 1342 -816 1378 -55 3 -131 1 -170 -4z m260
-444 c135 -35 268 -140 332 -261 189 -357 -65 -784 -465 -784 -243 0 -456 163
-517 395 -19 76 -19 194 0 270 47 178 198 331 376 379 72 19 201 20 274 1z"/>
</g>
</svg>
