<?xml version="1.0" standalone="no"?>
<!DOCTYPE svg PUBLIC "-//W3C//DTD SVG 20010904//EN"
 "http://www.w3.org/TR/2001/REC-SVG-20010904/DTD/svg10.dtd">
<svg version="1.0" xmlns="http://www.w3.org/2000/svg"
 width="512.000000pt" height="512.000000pt" viewBox="0 0 512.000000 512.000000"
 preserveAspectRatio="xMidYMid meet">

<g transform="translate(0.000000,512.000000) scale(0.100000,-0.100000)"
fill="#000000" stroke="none">
<path d="M1845 4791 c-90 -22 -172 -90 -215 -176 l-25 -50 0 -2005 0 -2005 23
-45 c35 -72 75 -114 144 -151 l63 -34 725 0 725 0 63 34 c70 38 100 69 140
145 l27 51 0 2005 0 2005 -34 63 c-37 69 -79 109 -151 144 l-45 23 -705 2
c-388 1 -718 -2 -735 -6z m830 -486 c237 -62 393 -291 358 -529 -28 -194 -168
-351 -358 -401 -250 -65 -513 94 -580 350 -89 342 238 669 580 580z m0 -1280
c237 -62 393 -291 358 -529 -28 -194 -168 -351 -358 -401 -250 -65 -513 94
-580 350 -89 342 238 669 580 580z m0 -1280 c237 -62 393 -291 358 -529 -28
-194 -168 -351 -358 -401 -250 -65 -513 94 -580 350 -89 342 238 669 580 580z"/>
<path d="M735 4306 c-41 -18 -83 -69 -91 -111 -16 -86 -14 -89 289 -392 155
-156 289 -283 299 -283 9 0 24 7 32 16 14 13 16 64 16 400 l0 384 -257 0
c-192 -1 -266 -4 -288 -14z"/>
<path d="M3840 3936 c0 -336 2 -387 16 -400 8 -9 23 -16 33 -16 9 0 143 127
298 283 242 243 282 287 288 320 10 52 -1 101 -32 138 -47 56 -67 59 -348 59
l-255 0 0 -384z"/>
<path d="M735 3026 c-41 -18 -83 -69 -91 -111 -16 -86 -14 -89 289 -392 155
-156 289 -283 299 -283 9 0 24 7 32 16 14 13 16 64 16 400 l0 384 -257 0
c-192 -1 -266 -4 -288 -14z"/>
<path d="M3840 2656 c0 -336 2 -387 16 -400 8 -9 23 -16 33 -16 9 0 143 127
298 283 242 243 282 287 288 320 10 52 -1 101 -32 138 -47 56 -67 59 -348 59
l-255 0 0 -384z"/>
<path d="M735 1746 c-41 -18 -83 -69 -91 -111 -16 -86 -14 -89 289 -392 155
-156 289 -283 299 -283 9 0 24 7 32 16 14 13 16 64 16 400 l0 384 -257 0
c-192 -1 -266 -4 -288 -14z"/>
<path d="M3840 1376 c0 -336 2 -387 16 -400 8 -9 23 -16 33 -16 9 0 143 127
298 283 242 243 282 287 288 320 10 52 -1 101 -32 138 -47 56 -67 59 -348 59
l-255 0 0 -384z"/>
</g>
</svg>
